<svg width="571" height="117" viewBox="0 0 571 117" fill="none" xmlns="http://www.w3.org/2000/svg">
<path d="M8.37 30.3C11.85 30.3 13.83 28.02 14.25 25.83C14.37 25.23 13.62 25.14 13.38 25.59C12.69 27.09 11.31 28.41 9.21 28.41C5.88 28.41 3.51 25.74 3.51 21.54C3.51 18.57 5.28 16.26 7.77 16.26C11.19 16.29 11.16 20.01 12.9 20.07C13.74 20.1 14.1 19.62 14.1 19.02C14.1 17.34 11.52 15.27 8.25 15.3C4.17 15.33 0.87 18.21 0.87 22.71C0.87 27.06 4.2 30.3 8.37 30.3ZM30.2686 27.84L29.9386 21.81C29.6686 17.28 27.2086 15.3 24.2686 15.3C22.3486 15.3 20.7286 16.23 19.7986 17.67L19.8586 7.95C19.8586 7.5 19.5286 7.29 18.9886 7.56L16.5286 8.64C16.2586 8.76 16.1086 8.91 16.1086 9.15V9.24C16.1086 9.72 17.2486 9.78 17.2486 10.95V27.9C17.2486 28.95 16.1386 28.92 16.1386 29.52V29.61C16.1386 29.85 16.3486 30 16.7086 30H20.4586C20.8186 30 21.0886 29.85 21.0886 29.61V29.52C21.0886 28.92 19.8886 28.95 19.8886 27.9V20.61C19.8886 18.24 21.4186 16.47 23.6386 16.47C25.7086 16.47 27.1786 18.21 27.3286 21.75L27.6286 27.87C27.6886 28.92 26.5486 28.95 26.5486 29.52V29.64C26.5486 29.88 26.7886 30 27.1486 30H30.7486C31.1086 30 31.3486 29.88 31.3486 29.64V29.52C31.3486 28.95 30.3586 28.92 30.2686 27.84ZM45.5494 27.6L44.9494 21.63C44.5594 17.67 42.3394 15.3 38.6494 15.3C35.3794 15.3 33.3394 16.98 33.3394 18.57C33.3394 19.26 33.7894 19.68 34.5094 19.68C36.0094 19.68 35.5294 16.26 38.6494 16.26C41.0494 16.26 42.0094 18.18 42.3394 21.72L42.3994 22.53C41.5894 21.78 40.2994 21.33 38.7094 21.33C35.5894 21.33 33.1894 22.89 33.2194 25.77C33.2194 28.65 35.4994 30.3 38.7994 30.3C40.9894 30.3 42.4294 29.46 43.1194 28.2C43.2394 29.85 43.9594 30.18 45.3094 30.18C46.4194 30.18 47.2294 30 47.2294 29.55C47.2294 28.8 45.7294 29.46 45.5494 27.6ZM39.4594 29.34C37.2994 29.34 35.8594 27.6 35.8594 25.41C35.8594 23.55 37.2694 22.29 39.3094 22.29C41.0794 22.29 42.3094 23.28 42.6094 24.69L42.7294 26.04C42.7894 27.87 41.4694 29.34 39.4594 29.34ZM56.4952 15.3C54.3952 15.3 52.5952 16.29 51.6952 17.82L51.7252 15.84C51.7252 15.39 51.4852 15.15 50.8852 15.42L48.7252 16.47C48.4252 16.59 48.2452 16.77 48.2452 17.01V17.1C48.2452 17.7 49.4452 17.73 49.4452 18.78V34.68C49.4452 35.79 48.3352 35.79 48.3352 36.36V36.45C48.3352 36.72 48.6052 36.84 48.9652 36.84H52.6552C53.0152 36.84 53.2552 36.72 53.2552 36.45V36.36C53.2552 35.79 52.0852 35.79 52.0852 34.68V28.23C53.1352 29.52 54.6652 30.3 56.5252 30.3C60.3052 30.3 63.3952 27.03 63.3952 22.59C63.3952 18.15 60.1552 15.3 56.4952 15.3ZM56.1652 29.34C54.0652 29.34 52.0852 27.12 52.0852 24.72V19.59C52.3252 17.76 53.9752 16.26 55.8352 16.26C58.7452 16.26 60.7252 19.17 60.7252 23.31C60.7252 27 58.9252 29.34 56.1652 29.34ZM77.8931 27.6L77.2931 21.63C76.9031 17.67 74.6831 15.3 70.9931 15.3C67.7231 15.3 65.6831 16.98 65.6831 18.57C65.6831 19.26 66.1331 19.68 66.8531 19.68C68.3531 19.68 67.8731 16.26 70.9931 16.26C73.3931 16.26 74.3531 18.18 74.6831 21.72L74.7431 22.53C73.9331 21.78 72.6431 21.33 71.0531 21.33C67.9331 21.33 65.5331 22.89 65.5631 25.77C65.5631 28.65 67.8431 30.3 71.1431 30.3C73.3331 30.3 74.7731 29.46 75.4631 28.2C75.5831 29.85 76.3031 30.18 77.6531 30.18C78.7631 30.18 79.5731 30 79.5731 29.55C79.5731 28.8 78.0731 29.46 77.8931 27.6ZM71.8031 29.34C69.6431 29.34 68.2031 27.6 68.2031 25.41C68.2031 23.55 69.6131 22.29 71.6531 22.29C73.4231 22.29 74.6531 23.28 74.9531 24.69L75.0731 26.04C75.1331 27.87 73.8131 29.34 71.8031 29.34ZM86.051 30.3C88.451 30.3 89.891 28.5 89.891 26.64C89.891 26.1 89.171 26.07 88.991 26.52C88.871 27.54 88.091 28.32 86.771 28.32C85.661 28.32 84.881 27.45 84.881 25.8V16.8H89.021C89.261 16.8 89.471 16.62 89.471 16.35V16.05C89.471 15.81 89.261 15.6 89.021 15.6H84.881L84.851 12.75C84.851 12.36 84.731 12.15 84.371 12.15H84.071C83.801 12.15 83.591 12.36 83.561 12.75C83.411 14.46 82.721 15.6 81.281 15.6H80.201C79.901 15.6 79.751 15.78 79.751 16.05V16.35C79.751 16.62 79.931 16.8 80.201 16.8H82.181V25.77C82.181 28.83 83.741 30.3 86.051 30.3ZM93.8344 12.75C95.0044 12.75 95.7844 12 95.7844 10.89C95.7844 9.78 95.0044 9 93.8344 9C92.6044 9 91.8244 9.78 91.8244 10.89C91.8244 12 92.6044 12.75 93.8344 12.75ZM92.0944 30H95.7844C96.1444 30 96.4144 29.85 96.4144 29.61V29.49C96.4144 28.92 95.2144 28.92 95.2144 27.87V15.84C95.2144 15.42 94.9144 15.12 94.2844 15.42L91.9744 16.56C91.7044 16.71 91.5244 16.8 91.5244 17.01V17.07C91.5244 17.52 92.6044 17.76 92.6044 18.93V27.87C92.6044 28.92 91.5244 28.92 91.5244 29.49V29.61C91.5244 29.85 91.7344 30 92.0944 30Z" fill="white"/>
<path d="M117 29.6998C123.462 29.6998 128.7 24.4615 128.7 17.9998C128.7 11.5381 123.462 6.2998 117 6.2998C110.538 6.2998 105.3 11.5381 105.3 17.9998C105.3 24.4615 110.538 29.6998 117 29.6998Z" stroke="white" stroke-width="0.5" stroke-miterlimit="10"/>
<path d="M117.828 7.50014C117.212 11.0245 116.812 14.5831 116.628 18.1561C116.388 21.6201 116.308 25.0921 116.388 28.5721C116.388 28.6921 116.772 28.5721 116.772 28.4641C116.688 24.9241 116.772 21.3842 117.036 17.8442C117.231 14.3596 117.632 10.8896 118.236 7.45217C118.236 7.30817 117.876 7.36817 117.852 7.45217L117.828 7.50014Z" fill="white"/>
<path d="M117.624 10.1161C117.396 9.85145 117.25 9.52624 117.204 9.1801C117.118 8.84574 117.062 8.5044 117.036 8.16009L116.82 8.3161C117 8.3161 117.132 8.05207 116.82 8.10007C116.748 8.10007 116.592 8.10008 116.604 8.25608C116.626 8.64197 116.69 9.02429 116.796 9.39609C116.859 9.71202 117.004 10.0058 117.216 10.2481C117.324 10.3321 117.672 10.1761 117.576 10.1041L117.624 10.1161Z" fill="white"/>
<path d="M117.876 10.44C118.193 10.0559 118.489 9.65533 118.764 9.24001C119.016 8.95317 119.215 8.62411 119.352 8.26801C119.352 8.13601 119.004 8.18401 118.968 8.26801C118.81 8.64893 118.591 9.00155 118.32 9.31201C118.068 9.67201 117.804 10.02 117.516 10.356C117.408 10.476 117.792 10.452 117.876 10.356V10.44Z" fill="white"/>
<path d="M117.432 11.3279C116.604 11.3279 116.304 10.1279 115.944 9.5519C115.872 9.4439 115.5 9.55191 115.584 9.70791C116.016 10.4039 116.292 11.4959 117.276 11.5439C117.42 11.5439 117.684 11.3399 117.432 11.3279Z" fill="white"/>
<path d="M117.6 11.6398C118.084 11.4675 118.526 11.1933 118.896 10.8358C119.088 10.6558 119.28 10.4638 119.46 10.2718C119.64 10.0798 119.724 9.81584 119.904 9.61184C120.084 9.40784 119.616 9.50384 119.544 9.61184C119.472 9.71984 119.364 9.94784 119.244 10.1038C119.101 10.2725 118.949 10.4328 118.788 10.5838C118.458 10.9614 118.048 11.2607 117.588 11.4598C117.36 11.5318 117.408 11.7359 117.648 11.6519L117.6 11.6398Z" fill="white"/>
<path d="M117.348 12.4439C116.868 12.4439 116.4 11.8679 116.076 11.5559L115.608 11.0519C115.5 10.9199 115.272 10.7399 115.224 10.5599C115.176 10.3799 114.792 10.5599 114.84 10.6679C114.928 10.8495 115.05 11.0125 115.2 11.1479C115.428 11.3999 115.644 11.6399 115.884 11.8679C116.217 12.2731 116.679 12.5525 117.192 12.6599C117.336 12.6599 117.6 12.4559 117.348 12.4439Z" fill="white"/>
<path d="M117.516 12.564C118.36 12.0465 119.162 11.4648 119.916 10.824C120.084 10.68 119.7 10.68 119.604 10.764C118.847 11.3868 118.045 11.9523 117.204 12.456C116.988 12.588 117.324 12.648 117.444 12.564H117.516Z" fill="white"/>
<path d="M116.988 13.6918C116.844 14.0278 116.172 13.5838 116.016 13.4638C115.864 13.3361 115.724 13.1956 115.596 13.0439C115.263 12.6914 114.991 12.2858 114.792 11.8439L114.624 11.9879C114.852 11.9879 114.804 11.7359 114.564 11.7959C114.564 11.7959 114.372 11.8679 114.396 11.9519C114.584 12.3442 114.826 12.7078 115.116 13.0319C115.382 13.4066 115.742 13.7046 116.16 13.8959C116.52 14.0399 117.18 14.0518 117.36 13.6198C117.36 13.5118 117.036 13.5478 116.976 13.6198L116.988 13.6918Z" fill="white"/>
<path d="M117.432 13.692L117.336 13.908C117.908 13.7276 118.427 13.4104 118.848 12.984C119.51 12.5516 120.084 11.9979 120.54 11.352C120.624 11.196 120.24 11.232 120.18 11.352C119.817 11.8706 119.367 12.3214 118.848 12.684C118.603 12.8971 118.346 13.0974 118.08 13.284C117.912 13.392 117.588 13.68 117.384 13.704C117.18 13.728 117.036 13.92 117.288 13.92C117.432 13.92 117.696 13.704 117.444 13.704L117.432 13.692Z" fill="white"/>
<path d="M117.084 15.0718C116.365 14.9348 115.714 14.5583 115.236 14.0038C114.924 13.7158 114.312 13.1998 114.228 12.8038C114.228 12.6718 113.82 12.8038 113.844 12.9118C113.932 13.17 114.09 13.3986 114.3 13.5718C114.567 13.895 114.86 14.196 115.176 14.4718C115.647 14.9472 116.264 15.2513 116.928 15.3358C117.084 15.3358 117.348 15.1198 117.084 15.1198V15.0718Z" fill="white"/>
<path d="M117.204 15.0362C117.144 15.0362 116.94 15.1562 117.072 15.2282C117.672 15.5402 118.272 15.0122 118.8 14.6882C119.532 14.1633 120.19 13.5417 120.756 12.8402C120.876 12.7082 120.48 12.7322 120.396 12.8402C120.031 13.2736 119.629 13.675 119.196 14.0402C118.86 14.3162 117.816 15.3002 117.312 15.0362L117.18 15.2282C117.408 15.1682 117.36 14.9642 117.18 15.0362H117.204Z" fill="white"/>
<path d="M116.868 16.7041C116.868 16.7041 116.868 16.8001 116.928 16.8121C117.686 16.8061 118.419 16.5391 119.004 16.0561C119.824 15.5725 120.548 14.942 121.14 14.1961C121.224 14.0761 120.996 14.0761 120.936 14.0881H120.852C120.624 14.1601 120.672 14.3521 120.852 14.2801H120.936L120.732 14.1721C120.315 14.6994 119.817 15.1571 119.256 15.5281C118.997 15.7337 118.724 15.9221 118.44 16.0921C118.023 16.2457 117.621 16.4386 117.24 16.6681C117.336 16.5121 116.952 16.5481 116.88 16.6681L116.868 16.7041Z" fill="white"/>
<path d="M116.796 18.4558C117.576 18.6958 118.428 18.0118 119.016 17.6038C119.445 17.3178 119.847 16.9924 120.216 16.6318C120.552 16.3591 120.833 16.0252 121.044 15.6478C121.044 15.5278 120.708 15.5758 120.66 15.6478C120.29 16.2539 119.79 16.7703 119.196 17.1598C118.752 17.5078 117.624 18.4438 117 18.2518C116.88 18.2518 116.544 18.3958 116.76 18.4558H116.796Z" fill="white"/>
<path d="M116.58 20.04C117.312 20.28 118.14 19.752 118.776 19.404C119.801 18.7736 120.747 18.0244 121.596 17.172C121.764 17.016 121.38 17.016 121.284 17.1C120.744 17.616 120.156 18.108 119.58 18.576C119.245 18.8337 118.896 19.074 118.536 19.296C118.128 19.512 117.336 20.004 116.88 19.848C116.76 19.848 116.412 19.98 116.58 20.04Z" fill="white"/>
<path d="M116.928 21.4678C116.784 21.4678 116.508 21.6838 116.772 21.6958C117.672 21.5386 118.506 21.1215 119.172 20.4958C120.13 19.8532 121.019 19.1133 121.824 18.2878C121.884 18.2278 121.824 18.1798 121.824 18.1558C121.704 18.1558 121.38 18.3118 121.596 18.3718C121.308 18.2998 120.96 18.8038 120.756 18.9718C120.552 19.1398 120 19.6318 119.556 19.9318C119.112 20.2318 118.752 20.5198 118.356 20.7838C117.968 21.1232 117.495 21.3513 116.988 21.4438L116.832 21.6718C116.976 21.6718 117.24 21.4438 116.976 21.4438L116.928 21.4678Z" fill="white"/>
<path d="M116.616 23.208C116.904 23.616 118.224 22.644 118.452 22.476C119.722 21.4583 120.898 20.3298 121.968 19.104C122.028 19.044 121.968 18.984 121.968 18.96C121.836 18.96 121.512 19.1159 121.728 19.1639C121.536 19.1639 121.488 19.284 121.368 19.416C121.248 19.548 120.864 20.0039 120.6 20.2919C120.336 20.5799 119.796 21.036 119.4 21.408C119.208 21.588 117.204 23.304 117 23.052C116.796 22.8 116.544 23.052 116.64 23.208H116.616Z" fill="white"/>
<path d="M116.58 24.7558C117.132 25.3318 118.8 23.7718 119.208 23.4598C119.829 22.9923 120.411 22.4745 120.948 21.9118C121.42 21.4975 121.789 20.9801 122.028 20.3998H121.632V20.4598C121.632 20.6158 122.016 20.5438 122.028 20.4598V20.3998C122.028 20.2438 121.668 20.3278 121.632 20.3998C121.476 20.7958 121.234 21.1524 120.924 21.4438C120.564 21.882 120.162 22.284 119.724 22.6438C119.448 22.8838 117.324 24.8038 116.988 24.5158C116.892 24.4198 116.532 24.5157 116.628 24.6717L116.58 24.7558Z" fill="white"/>
<path d="M116.928 16.5961C116.172 16.5961 115.596 15.9481 115.128 15.3961C114.924 15.1801 114.744 14.9521 114.552 14.7121C114.322 14.5094 114.138 14.2599 114.012 13.9801C114.012 13.8481 113.604 13.9801 113.628 14.0881C113.652 14.1961 113.952 14.5681 114.12 14.7721C114.288 14.9761 114.72 15.5161 115.056 15.8641C115.263 16.131 115.524 16.3513 115.821 16.5105C116.119 16.6697 116.447 16.7643 116.784 16.7881C116.928 16.7881 117.192 16.5721 116.928 16.5721V16.5961Z" fill="white"/>
<path d="M116.856 18.3121C116.496 18.3721 115.884 17.7481 115.656 17.5321C115.294 17.2676 114.96 16.966 114.66 16.6321C114.097 15.9814 113.636 15.2491 113.292 14.4601C113.232 14.3281 112.848 14.4601 112.908 14.5681C113.334 15.542 113.936 16.4289 114.684 17.1841C115.104 17.558 115.549 17.9028 116.016 18.2161C116.242 18.4218 116.538 18.5333 116.844 18.5281C117.036 18.5281 117.168 18.2641 116.904 18.3121H116.856Z" fill="white"/>
<path d="M116.904 19.7881C115.964 19.5796 115.12 19.0647 114.504 18.3241C113.844 17.6881 113.307 16.9354 112.92 16.1041C112.86 15.9721 112.488 16.1041 112.536 16.2121C112.957 17.2132 113.592 18.1101 114.396 18.8401C115.02 19.4709 115.826 19.8905 116.7 20.0401C116.856 20.0401 117.108 19.8361 116.856 19.8121L116.904 19.7881Z" fill="white"/>
<path d="M116.568 21.3842V21.4562L116.736 21.3362C116.376 21.4202 115.644 20.8322 115.332 20.6402C114.875 20.3804 114.438 20.0876 114.024 19.7642C113.228 19.1588 112.64 18.3197 112.344 17.3642C112.344 17.2322 111.912 17.3642 111.96 17.4602C112.424 18.7722 113.361 19.8636 114.588 20.5202C114.948 20.7482 116.652 22.0682 116.988 21.3002C117.048 21.1802 116.664 21.2162 116.604 21.3002L116.568 21.3842Z" fill="white"/>
<path d="M116.976 23.0638C115.786 22.7172 114.682 22.1244 113.736 21.3238C112.882 20.6893 112.185 19.8685 111.696 18.9238C111.624 18.7918 111.252 18.9238 111.312 19.0198C111.837 20.0606 112.607 20.9583 113.556 21.6358C114.483 22.4145 115.568 22.9835 116.736 23.3038C116.868 23.3038 117.192 23.1358 116.976 23.0998V23.0638Z" fill="white"/>
<path d="M116.448 24.5758C115.789 24.4024 115.183 24.0685 114.684 23.6038C114.276 23.3038 113.892 22.9918 113.484 22.6558C112.649 21.9305 111.957 21.0555 111.444 20.0758C111.372 19.9438 111 20.0758 111.06 20.1838C111.659 21.3051 112.475 22.2963 113.46 23.0998C114.18 23.7118 115.272 24.7558 116.268 24.7918C116.412 24.7918 116.676 24.5758 116.412 24.5758H116.448Z" fill="white"/>
<path d="M116.724 26.256C115.629 25.9543 114.632 25.3709 113.832 24.564C112.87 23.9172 112.073 23.0542 111.504 22.0441C111.504 21.9121 111.06 22.0441 111.108 22.1521C111.734 23.2414 112.605 24.1699 113.652 24.864C114.445 25.628 115.42 26.1773 116.484 26.4601C116.604 26.4601 116.94 26.28 116.724 26.256Z" fill="white"/>
<path d="M116.856 26.6759C117.768 25.8359 118.92 25.2839 119.832 24.4199C120.628 23.7339 121.238 22.8592 121.608 21.8759C121.608 21.7439 121.26 21.7919 121.212 21.8759C120.504 24.1799 118.164 25.0799 116.544 26.5679C116.376 26.7239 116.76 26.7239 116.856 26.5679V26.6759Z" fill="white"/>
</svg>
