<?xml version="1.0" encoding="utf-8"?>
<!-- Generator: Adobe Illustrator 25.4.1, SVG Export Plug-In . SVG Version: 6.00 Build 0)  -->
<svg version="1.1" id="Capa_1" xmlns="http://www.w3.org/2000/svg" xmlns:xlink="http://www.w3.org/1999/xlink" x="0px" y="0px"
	 viewBox="0 0 808.57 880" style="enable-background:new 0 0 808.57 880;" xml:space="preserve">
<style type="text/css">
	.st0{fill:#183A36;}
</style>
<path class="st0" d="M193.79,437.16c17.42-53.64,18.11-116.14,56.47-157.47c20.18-21.74,48.09-34.24,74.63-47.49
	c45.17-22.57,88.47-48.87,129.31-78.55c49.93-36.29,102.18-79.74,163.87-78.01c39.62,1.11,77.66,22.43,101.24,54.29
	c23.57,31.86,32.87,73.38,27.54,112.65c-4.62,34.01-19.55,66.21-22.01,100.45c-4.75,65.96,37,127.33,39.17,193.43
	c1.93,58.88-29.27,116.24-75.62,152.6c-46.35,36.36-106.23,52.96-165.13,53.38c-32.59,0.23-65.69-4.16-97.44,3.16
	c-28.13,6.49-53.3,21.74-78.76,35.35c-52.94,28.3-110.85,50.62-170.88,50.81c-23.09,0.07-47.58-3.76-65.13-18.77
	c-17.33-14.82-24.87-37.79-31.64-59.56c-8.56-27.5-17.12-55.01-25.69-82.52c-19.67-63.21,1.1-75.14,46.9-107.71
	C143.93,532.4,177.35,487.78,193.79,437.16z"/>
</svg>
