<svg width="1392" height="1522" viewBox="0 0 1392 1522" fill="none" xmlns="http://www.w3.org/2000/svg">
<path d="M243.054 727.757C278.147 619.786 279.537 493.981 356.835 410.729C397.489 366.949 453.715 341.808 507.181 315.117C598.216 269.694 685.345 216.845 767.682 157.106C868.268 84.0791 973.508 -3.40052 1097.81 0.101885C1177.62 2.33618 1254.28 45.2507 1301.76 109.381C1349.24 173.511 1368.02 257.026 1357.24 336.071C1347.93 404.509 1317.85 469.344 1312.92 538.245C1303.37 671.095 1387.46 794.565 1391.83 927.596C1395.72 1046.11 1332.86 1161.57 1239.49 1234.76C1146.11 1307.95 1025.48 1341.44 906.827 1342.21C841.173 1342.67 774.491 1333.83 710.529 1348.57C653.84 1361.61 603.154 1392.33 551.864 1419.72C445.193 1476.69 328.511 1521.62 207.638 1522C161.122 1522.14 111.766 1514.43 76.4304 1484.22C41.5183 1454.39 26.3286 1408.17 12.67 1364.35L-39.0636 1198.25C-78.6897 1071.01 -36.8476 1047 55.4187 981.44C142.608 919.443 209.955 829.629 243.054 727.757Z" fill="#DD6B3E"/>
</svg>
