<svg width="666" height="701" viewBox="0 0 666 701" fill="none" xmlns="http://www.w3.org/2000/svg">
<path d="M136.817 335.189C152.981 285.46 153.621 227.517 189.223 189.173C207.947 169.009 233.844 157.429 258.469 145.136C300.398 124.215 340.528 99.874 378.451 72.3597C424.779 38.725 473.251 -1.56621 530.5 0.046926C567.262 1.07599 602.567 20.8415 624.437 50.3785C646.306 79.9155 654.954 118.38 649.99 154.787C645.703 186.308 631.85 216.17 629.577 247.904C625.179 309.091 663.908 365.959 665.921 427.23C667.712 481.817 638.763 534.995 595.756 568.704C552.75 602.413 497.19 617.839 442.539 618.192C412.3 618.405 381.587 614.335 352.128 621.121C326.018 627.129 302.673 641.276 279.049 653.894C229.919 680.13 176.177 700.823 120.505 700.999C99.0811 701.064 76.3485 697.513 60.0738 683.598C43.9939 669.858 36.9978 648.572 30.7069 628.39L6.87943 551.886C-11.3716 493.285 7.90009 482.225 50.3962 452.03C90.554 423.476 121.572 382.109 136.817 335.189Z" fill="#0D3866"/>
</svg>
